<?xml version="1.0" encoding="UTF-8" standalone="no"?>
<!-- Created with Inkscape (http://www.inkscape.org/) -->

<svg
   width="210mm"
   height="297mm"
   viewBox="0 0 210 297"
   version="1.1"
   id="svg5"
   inkscape:version="1.1.1 (3bf5ae0d25, 2021-09-20, custom)"
   sodipodi:docname="containers.svg"
   inkscape:export-filename="/home/alexandre/Projects/dem/docs/internals/containers.png"
   inkscape:export-xdpi="96"
   inkscape:export-ydpi="96"
   xmlns:inkscape="http://www.inkscape.org/namespaces/inkscape"
   xmlns:sodipodi="http://sodipodi.sourceforge.net/DTD/sodipodi-0.dtd"
   xmlns:xlink="http://www.w3.org/1999/xlink"
   xmlns="http://www.w3.org/2000/svg"
   xmlns:svg="http://www.w3.org/2000/svg">
  <sodipodi:namedview
     id="namedview7"
     pagecolor="#ffffff"
     bordercolor="#666666"
     borderopacity="1.0"
     inkscape:pageshadow="2"
     inkscape:pageopacity="0.0"
     inkscape:pagecheckerboard="0"
     inkscape:document-units="mm"
     showgrid="false"
     inkscape:zoom="0.90583674"
     inkscape:cx="645.81174"
     inkscape:cy="522.72113"
     inkscape:window-width="1920"
     inkscape:window-height="979"
     inkscape:window-x="0"
     inkscape:window-y="0"
     inkscape:window-maximized="1"
     inkscape:current-layer="layer1"
     inkscape:snap-page="false" />
  <defs
     id="defs2">
    <marker
       style="overflow:visible;"
       id="Arrow2Mend"
       refX="0.0"
       refY="0.0"
       orient="auto"
       inkscape:stockid="Arrow2Mend"
       inkscape:isstock="true">
      <path
         transform="scale(0.6) rotate(180) translate(0,0)"
         d="M 8.7185878,4.0337352 L -2.2072895,0.016013256 L 8.7185884,-4.0017078 C 6.9730900,-1.6296469 6.9831476,1.6157441 8.7185878,4.0337352 z "
         style="stroke:context-stroke;fill-rule:evenodd;fill:context-stroke;stroke-width:0.62500000;stroke-linejoin:round;"
         id="path955" />
    </marker>
    <marker
       style="overflow:visible;"
       id="marker7768"
       refX="0.0"
       refY="0.0"
       orient="auto"
       inkscape:stockid="Arrow1Lend"
       inkscape:isstock="true">
      <path
         transform="scale(0.8) rotate(180) translate(12.5,0)"
         style="fill-rule:evenodd;fill:context-stroke;stroke:context-stroke;stroke-width:1.0pt;"
         d="M 0.0,0.0 L 5.0,-5.0 L -12.5,0.0 L 5.0,5.0 L 0.0,0.0 z "
         id="path7766" />
    </marker>
    <marker
       style="overflow:visible;"
       id="marker7758"
       refX="0.0"
       refY="0.0"
       orient="auto"
       inkscape:stockid="Arrow1Mend"
       inkscape:isstock="true">
      <path
         transform="scale(0.4) rotate(180) translate(10,0)"
         style="fill-rule:evenodd;fill:context-stroke;stroke:context-stroke;stroke-width:1.0pt;"
         d="M 0.0,0.0 L 5.0,-5.0 L -12.5,0.0 L 5.0,5.0 L 0.0,0.0 z "
         id="path7756" />
    </marker>
    <marker
       style="overflow:visible;"
       id="Arrow1Mend"
       refX="0.0"
       refY="0.0"
       orient="auto"
       inkscape:stockid="Arrow1Mend"
       inkscape:isstock="true">
      <path
         transform="scale(0.4) rotate(180) translate(10,0)"
         style="fill-rule:evenodd;fill:context-stroke;stroke:context-stroke;stroke-width:1.0pt;"
         d="M 0.0,0.0 L 5.0,-5.0 L -12.5,0.0 L 5.0,5.0 L 0.0,0.0 z "
         id="path937" />
    </marker>
    <marker
       style="overflow:visible"
       id="Arrow2Mstart"
       refX="0.0"
       refY="0.0"
       orient="auto"
       inkscape:stockid="Arrow2Mstart"
       inkscape:isstock="true">
      <path
         transform="scale(0.6) translate(0,0)"
         d="M 8.7185878,4.0337352 L -2.2072895,0.016013256 L 8.7185884,-4.0017078 C 6.9730900,-1.6296469 6.9831476,1.6157441 8.7185878,4.0337352 z "
         style="stroke:context-stroke;fill-rule:evenodd;fill:context-stroke;stroke-width:0.62500000;stroke-linejoin:round"
         id="path952" />
    </marker>
    <marker
       style="overflow:visible"
       id="Arrow2Lstart"
       refX="0.0"
       refY="0.0"
       orient="auto"
       inkscape:stockid="Arrow2Lstart"
       inkscape:isstock="true">
      <path
         transform="scale(1.1) translate(1,0)"
         d="M 8.7185878,4.0337352 L -2.2072895,0.016013256 L 8.7185884,-4.0017078 C 6.9730900,-1.6296469 6.9831476,1.6157441 8.7185878,4.0337352 z "
         style="stroke:context-stroke;fill-rule:evenodd;fill:context-stroke;stroke-width:0.62500000;stroke-linejoin:round"
         id="path946" />
    </marker>
    <marker
       style="overflow:visible;"
       id="marker6717"
       refX="0.0"
       refY="0.0"
       orient="auto"
       inkscape:stockid="Arrow1Lend"
       inkscape:isstock="true">
      <path
         transform="scale(0.8) rotate(180) translate(12.5,0)"
         style="fill-rule:evenodd;fill:context-stroke;stroke:context-stroke;stroke-width:1.0pt;"
         d="M 0.0,0.0 L 5.0,-5.0 L -12.5,0.0 L 5.0,5.0 L 0.0,0.0 z "
         id="path6715" />
    </marker>
    <marker
       style="overflow:visible;"
       id="Arrow2Lend"
       refX="0.0"
       refY="0.0"
       orient="auto"
       inkscape:stockid="Arrow2Lend"
       inkscape:isstock="true">
      <path
         transform="scale(1.1) rotate(180) translate(1,0)"
         d="M 8.7185878,4.0337352 L -2.2072895,0.016013256 L 8.7185884,-4.0017078 C 6.9730900,-1.6296469 6.9831476,1.6157441 8.7185878,4.0337352 z "
         style="stroke:context-stroke;fill-rule:evenodd;fill:context-stroke;stroke-width:0.62500000;stroke-linejoin:round;"
         id="path949" />
    </marker>
    <marker
       style="overflow:visible"
       id="Arrow1Lstart"
       refX="0.0"
       refY="0.0"
       orient="auto"
       inkscape:stockid="Arrow1Lstart"
       inkscape:isstock="true">
      <path
         transform="scale(0.8) translate(12.5,0)"
         style="fill-rule:evenodd;fill:context-stroke;stroke:context-stroke;stroke-width:1.0pt"
         d="M 0.0,0.0 L 5.0,-5.0 L -12.5,0.0 L 5.0,5.0 L 0.0,0.0 z "
         id="path928" />
    </marker>
    <marker
       style="overflow:visible;"
       id="marker6691"
       refX="0.0"
       refY="0.0"
       orient="auto"
       inkscape:stockid="Arrow1Lend"
       inkscape:isstock="true">
      <path
         transform="scale(0.8) rotate(180) translate(12.5,0)"
         style="fill-rule:evenodd;fill:context-stroke;stroke:context-stroke;stroke-width:1.0pt;"
         d="M 0.0,0.0 L 5.0,-5.0 L -12.5,0.0 L 5.0,5.0 L 0.0,0.0 z "
         id="path6689" />
    </marker>
    <marker
       style="overflow:visible;"
       id="Arrow1Lend"
       refX="0.0"
       refY="0.0"
       orient="auto"
       inkscape:stockid="Arrow1Lend"
       inkscape:isstock="true">
      <path
         transform="scale(0.8) rotate(180) translate(12.5,0)"
         style="fill-rule:evenodd;fill:context-stroke;stroke:context-stroke;stroke-width:1.0pt;"
         d="M 0.0,0.0 L 5.0,-5.0 L -12.5,0.0 L 5.0,5.0 L 0.0,0.0 z "
         id="path931" />
    </marker>
    <symbol
       id="MagneticDisk">
      <title
         id="title2622">Magnetic Disk (Database)</title>
      <desc
         id="desc2624">A magnetic disk. (ISO)</desc>
      <path
         d="m 9.2604167,6.6145833 a 17.197917,17.197917 0 0 1 21.1666663,0 V 33.072917 a 17.197917,17.197917 0 0 1 -21.1666663,0 z"
         style="stroke-width:0.529167"
         id="path2626" />
      <path
         d="m 30.427083,6.6145833 a 17.197917,17.197917 0 0 1 -21.1666663,0"
         style="fill:none;stroke-width:0.529167;stroke-linecap:butt"
         id="path2628" />
      <path
         d="m 30.427083,10.583333 a 17.197917,17.197917 0 0 1 -21.1666663,0"
         style="fill:none;stroke-width:0.529167;stroke-linecap:butt"
         id="path2630" />
      <path
         d="m 30.427083,14.552083 a 17.197917,17.197917 0 0 1 -21.1666663,0"
         style="fill:none;stroke-width:0.529167;stroke-linecap:butt"
         id="path2632" />
    </symbol>
    <symbol
       id="Process">
      <title
         id="title2432">Process</title>
      <desc
         id="desc2434">Any processing function.</desc>
      <rect
         x="3.96875"
         y="9.260417"
         width="31.75"
         height="21.166666"
         style="stroke-width:0.529167"
         id="rect2436" />
    </symbol>
    <filter
       inkscape:collect="always"
       style="color-interpolation-filters:sRGB"
       id="filter5325"
       x="-2.2448859"
       y="-0.045658059"
       width="5.3130431"
       height="1.0912825">
      <feGaussianBlur
         inkscape:collect="always"
         stdDeviation="0.044195819"
         id="feGaussianBlur5327" />
    </filter>
    <marker
       style="overflow:visible"
       id="Arrow2Mstart-9"
       refX="0"
       refY="0"
       orient="auto"
       inkscape:stockid="Arrow2Mstart"
       inkscape:isstock="true">
      <path
         transform="scale(0.6)"
         d="M 8.7185878,4.0337352 -2.2072895,0.01601326 8.7185884,-4.0017078 c -1.7454984,2.3720609 -1.7354408,5.6174519 -6e-7,8.035443 z"
         style="fill:context-stroke;fill-rule:evenodd;stroke:context-stroke;stroke-width:0.625;stroke-linejoin:round"
         id="path952-3" />
    </marker>
    <marker
       style="overflow:visible"
       id="Arrow2Mend-1"
       refX="0"
       refY="0"
       orient="auto"
       inkscape:stockid="Arrow2Mend"
       inkscape:isstock="true">
      <path
         transform="scale(-0.6)"
         d="M 8.7185878,4.0337352 -2.2072895,0.01601326 8.7185884,-4.0017078 c -1.7454984,2.3720609 -1.7354408,5.6174519 -6e-7,8.035443 z"
         style="fill:context-stroke;fill-rule:evenodd;stroke:context-stroke;stroke-width:0.625;stroke-linejoin:round"
         id="path955-9" />
    </marker>
    <marker
       style="overflow:visible"
       id="Arrow2Mstart-4"
       refX="0"
       refY="0"
       orient="auto"
       inkscape:stockid="Arrow2Mstart"
       inkscape:isstock="true">
      <path
         transform="scale(0.6)"
         d="M 8.7185878,4.0337352 -2.2072895,0.01601326 8.7185884,-4.0017078 c -1.7454984,2.3720609 -1.7354408,5.6174519 -6e-7,8.035443 z"
         style="fill:context-stroke;fill-rule:evenodd;stroke:context-stroke;stroke-width:0.625;stroke-linejoin:round"
         id="path952-5" />
    </marker>
    <marker
       style="overflow:visible"
       id="Arrow2Mend-0"
       refX="0"
       refY="0"
       orient="auto"
       inkscape:stockid="Arrow2Mend"
       inkscape:isstock="true">
      <path
         transform="scale(-0.6)"
         d="M 8.7185878,4.0337352 -2.2072895,0.01601326 8.7185884,-4.0017078 c -1.7454984,2.3720609 -1.7354408,5.6174519 -6e-7,8.035443 z"
         style="fill:context-stroke;fill-rule:evenodd;stroke:context-stroke;stroke-width:0.625;stroke-linejoin:round"
         id="path955-3" />
    </marker>
    <marker
       style="overflow:visible"
       id="Arrow2Mstart-6"
       refX="0"
       refY="0"
       orient="auto"
       inkscape:stockid="Arrow2Mstart"
       inkscape:isstock="true">
      <path
         transform="scale(0.6)"
         d="M 8.7185878,4.0337352 -2.2072895,0.01601326 8.7185884,-4.0017078 c -1.7454984,2.3720609 -1.7354408,5.6174519 -6e-7,8.035443 z"
         style="fill:context-stroke;fill-rule:evenodd;stroke:context-stroke;stroke-width:0.625;stroke-linejoin:round"
         id="path952-32" />
    </marker>
    <marker
       style="overflow:visible"
       id="Arrow2Mend-06"
       refX="0"
       refY="0"
       orient="auto"
       inkscape:stockid="Arrow2Mend"
       inkscape:isstock="true">
      <path
         transform="scale(-0.6)"
         d="M 8.7185878,4.0337352 -2.2072895,0.01601326 8.7185884,-4.0017078 c -1.7454984,2.3720609 -1.7354408,5.6174519 -6e-7,8.035443 z"
         style="fill:context-stroke;fill-rule:evenodd;stroke:context-stroke;stroke-width:0.625;stroke-linejoin:round"
         id="path955-1" />
    </marker>
    <marker
       style="overflow:visible"
       id="Arrow2Mstart-7"
       refX="0"
       refY="0"
       orient="auto"
       inkscape:stockid="Arrow2Mstart"
       inkscape:isstock="true">
      <path
         transform="scale(0.6)"
         d="M 8.7185878,4.0337352 -2.2072895,0.01601326 8.7185884,-4.0017078 c -1.7454984,2.3720609 -1.7354408,5.6174519 -6e-7,8.035443 z"
         style="fill:context-stroke;fill-rule:evenodd;stroke:context-stroke;stroke-width:0.625;stroke-linejoin:round"
         id="path952-6" />
    </marker>
    <marker
       style="overflow:visible"
       id="Arrow2Mend-5"
       refX="0"
       refY="0"
       orient="auto"
       inkscape:stockid="Arrow2Mend"
       inkscape:isstock="true">
      <path
         transform="scale(-0.6)"
         d="M 8.7185878,4.0337352 -2.2072895,0.01601326 8.7185884,-4.0017078 c -1.7454984,2.3720609 -1.7354408,5.6174519 -6e-7,8.035443 z"
         style="fill:context-stroke;fill-rule:evenodd;stroke:context-stroke;stroke-width:0.625;stroke-linejoin:round"
         id="path955-6" />
    </marker>
    <marker
       style="overflow:visible"
       id="Arrow2Mstart-8"
       refX="0"
       refY="0"
       orient="auto"
       inkscape:stockid="Arrow2Mstart"
       inkscape:isstock="true">
      <path
         transform="scale(0.6)"
         d="M 8.7185878,4.0337352 -2.2072895,0.01601326 8.7185884,-4.0017078 c -1.7454984,2.3720609 -1.7354408,5.6174519 -6e-7,8.035443 z"
         style="fill:context-stroke;fill-rule:evenodd;stroke:context-stroke;stroke-width:0.625;stroke-linejoin:round"
         id="path952-7" />
    </marker>
    <marker
       style="overflow:visible"
       id="Arrow2Mend-9"
       refX="0"
       refY="0"
       orient="auto"
       inkscape:stockid="Arrow2Mend"
       inkscape:isstock="true">
      <path
         transform="scale(-0.6)"
         d="M 8.7185878,4.0337352 -2.2072895,0.01601326 8.7185884,-4.0017078 c -1.7454984,2.3720609 -1.7354408,5.6174519 -6e-7,8.035443 z"
         style="fill:context-stroke;fill-rule:evenodd;stroke:context-stroke;stroke-width:0.625;stroke-linejoin:round"
         id="path955-2" />
    </marker>
    <filter
       inkscape:collect="always"
       style="color-interpolation-filters:sRGB"
       id="filter5325-0"
       x="-0.10207854"
       y="-0.04143037"
       width="1.1967506"
       height="1.1571446">
      <feGaussianBlur
         inkscape:collect="always"
         stdDeviation="0.044195819"
         id="feGaussianBlur5327-2" />
    </filter>
    <marker
       style="overflow:visible"
       id="Arrow2Mstart-75"
       refX="0"
       refY="0"
       orient="auto"
       inkscape:stockid="Arrow2Mstart"
       inkscape:isstock="true">
      <path
         transform="scale(0.6)"
         d="M 8.7185878,4.0337352 -2.2072895,0.01601326 8.7185884,-4.0017078 c -1.7454984,2.3720609 -1.7354408,5.6174519 -6e-7,8.035443 z"
         style="fill:context-stroke;fill-rule:evenodd;stroke:context-stroke;stroke-width:0.625;stroke-linejoin:round"
         id="path952-9" />
    </marker>
    <marker
       style="overflow:visible"
       id="Arrow2Mend-2"
       refX="0"
       refY="0"
       orient="auto"
       inkscape:stockid="Arrow2Mend"
       inkscape:isstock="true">
      <path
         transform="scale(-0.6)"
         d="M 8.7185878,4.0337352 -2.2072895,0.01601326 8.7185884,-4.0017078 c -1.7454984,2.3720609 -1.7354408,5.6174519 -6e-7,8.035443 z"
         style="fill:context-stroke;fill-rule:evenodd;stroke:context-stroke;stroke-width:0.625;stroke-linejoin:round"
         id="path955-28" />
    </marker>
    <filter
       inkscape:collect="always"
       style="color-interpolation-filters:sRGB"
       id="filter5325-9"
       x="-0.15317921"
       y="-0.044366969"
       width="1.8651434"
       height="1.0463914">
      <feGaussianBlur
         inkscape:collect="always"
         stdDeviation="0.044195819"
         id="feGaussianBlur5327-7" />
    </filter>
    <marker
       style="overflow:visible"
       id="Arrow2Mstart-1"
       refX="0"
       refY="0"
       orient="auto"
       inkscape:stockid="Arrow2Mstart"
       inkscape:isstock="true">
      <path
         transform="scale(0.6)"
         d="M 8.7185878,4.0337352 -2.2072895,0.01601326 8.7185884,-4.0017078 c -1.7454984,2.3720609 -1.7354408,5.6174519 -6e-7,8.035443 z"
         style="fill:context-stroke;fill-rule:evenodd;stroke:context-stroke;stroke-width:0.625;stroke-linejoin:round"
         id="path952-2" />
    </marker>
    <marker
       style="overflow:visible"
       id="Arrow2Mend-93"
       refX="0"
       refY="0"
       orient="auto"
       inkscape:stockid="Arrow2Mend"
       inkscape:isstock="true">
      <path
         transform="scale(-0.6)"
         d="M 8.7185878,4.0337352 -2.2072895,0.01601326 8.7185884,-4.0017078 c -1.7454984,2.3720609 -1.7354408,5.6174519 -6e-7,8.035443 z"
         style="fill:context-stroke;fill-rule:evenodd;stroke:context-stroke;stroke-width:0.625;stroke-linejoin:round"
         id="path955-19" />
    </marker>
    <filter
       inkscape:collect="always"
       style="color-interpolation-filters:sRGB"
       id="filter5325-4"
       x="-0.097608999"
       y="-0.0018746864"
       width="1.5220255"
       height="1.0460566">
      <feGaussianBlur
         inkscape:collect="always"
         stdDeviation="0.044195819"
         id="feGaussianBlur5327-78" />
    </filter>
    <marker
       style="overflow:visible"
       id="Arrow2Mstart-5"
       refX="0"
       refY="0"
       orient="auto"
       inkscape:stockid="Arrow2Mstart"
       inkscape:isstock="true">
      <path
         transform="scale(0.6)"
         d="M 8.7185878,4.0337352 -2.2072895,0.01601326 8.7185884,-4.0017078 c -1.7454984,2.3720609 -1.7354408,5.6174519 -6e-7,8.035443 z"
         style="fill:context-stroke;fill-rule:evenodd;stroke:context-stroke;stroke-width:0.625;stroke-linejoin:round"
         id="path952-0" />
    </marker>
    <marker
       style="overflow:visible"
       id="Arrow2Mend-3"
       refX="0"
       refY="0"
       orient="auto"
       inkscape:stockid="Arrow2Mend"
       inkscape:isstock="true">
      <path
         transform="scale(-0.6)"
         d="M 8.7185878,4.0337352 -2.2072895,0.01601326 8.7185884,-4.0017078 c -1.7454984,2.3720609 -1.7354408,5.6174519 -6e-7,8.035443 z"
         style="fill:context-stroke;fill-rule:evenodd;stroke:context-stroke;stroke-width:0.625;stroke-linejoin:round"
         id="path955-61" />
    </marker>
    <filter
       inkscape:collect="always"
       style="color-interpolation-filters:sRGB"
       id="filter5325-06"
       x="-0.039402934"
       y="-0.044215682"
       width="1.2318871"
       height="1.0505866">
      <feGaussianBlur
         inkscape:collect="always"
         stdDeviation="0.044195819"
         id="feGaussianBlur5327-3" />
    </filter>
    <marker
       style="overflow:visible"
       id="Arrow2Mstart-5-0"
       refX="0"
       refY="0"
       orient="auto"
       inkscape:stockid="Arrow2Mstart"
       inkscape:isstock="true">
      <path
         transform="scale(0.6)"
         d="M 8.7185878,4.0337352 -2.2072895,0.01601326 8.7185884,-4.0017078 c -1.7454984,2.3720609 -1.7354408,5.6174519 -6e-7,8.035443 z"
         style="fill:context-stroke;fill-rule:evenodd;stroke:context-stroke;stroke-width:0.625;stroke-linejoin:round"
         id="path952-0-6" />
    </marker>
    <marker
       style="overflow:visible"
       id="Arrow2Mend-3-1"
       refX="0"
       refY="0"
       orient="auto"
       inkscape:stockid="Arrow2Mend"
       inkscape:isstock="true">
      <path
         transform="scale(-0.6)"
         d="M 8.7185878,4.0337352 -2.2072895,0.01601326 8.7185884,-4.0017078 c -1.7454984,2.3720609 -1.7354408,5.6174519 -6e-7,8.035443 z"
         style="fill:context-stroke;fill-rule:evenodd;stroke:context-stroke;stroke-width:0.625;stroke-linejoin:round"
         id="path955-61-5" />
    </marker>
    <filter
       inkscape:collect="always"
       style="color-interpolation-filters:sRGB"
       id="filter5325-06-5"
       x="-0.37199718"
       y="-0.045407165"
       width="2.7013431"
       height="1.0474579">
      <feGaussianBlur
         inkscape:collect="always"
         stdDeviation="0.044195819"
         id="feGaussianBlur5327-3-4" />
    </filter>
    <marker
       style="overflow:visible"
       id="Arrow2Mstart-8-6"
       refX="0"
       refY="0"
       orient="auto"
       inkscape:stockid="Arrow2Mstart"
       inkscape:isstock="true">
      <path
         transform="scale(0.6)"
         d="M 8.7185878,4.0337352 -2.2072895,0.01601326 8.7185884,-4.0017078 c -1.7454984,2.3720609 -1.7354408,5.6174519 -6e-7,8.035443 z"
         style="fill:context-stroke;fill-rule:evenodd;stroke:context-stroke;stroke-width:0.625;stroke-linejoin:round"
         id="path952-7-5" />
    </marker>
    <marker
       style="overflow:visible"
       id="Arrow2Mend-9-6"
       refX="0"
       refY="0"
       orient="auto"
       inkscape:stockid="Arrow2Mend"
       inkscape:isstock="true">
      <path
         transform="scale(-0.6)"
         d="M 8.7185878,4.0337352 -2.2072895,0.01601326 8.7185884,-4.0017078 c -1.7454984,2.3720609 -1.7354408,5.6174519 -6e-7,8.035443 z"
         style="fill:context-stroke;fill-rule:evenodd;stroke:context-stroke;stroke-width:0.625;stroke-linejoin:round"
         id="path955-2-9" />
    </marker>
    <filter
       inkscape:collect="always"
       style="color-interpolation-filters:sRGB"
       id="filter5325-0-3"
       x="-0.10207854"
       y="-0.04143037"
       width="1.1967506"
       height="1.1571446">
      <feGaussianBlur
         inkscape:collect="always"
         stdDeviation="0.044195819"
         id="feGaussianBlur5327-2-7" />
    </filter>
    <marker
       style="overflow:visible"
       id="Arrow2Mstart-8-6-5"
       refX="0"
       refY="0"
       orient="auto"
       inkscape:stockid="Arrow2Mstart"
       inkscape:isstock="true">
      <path
         transform="scale(0.6)"
         d="M 8.7185878,4.0337352 -2.2072895,0.01601326 8.7185884,-4.0017078 c -1.7454984,2.3720609 -1.7354408,5.6174519 -6e-7,8.035443 z"
         style="fill:context-stroke;fill-rule:evenodd;stroke:context-stroke;stroke-width:0.625;stroke-linejoin:round"
         id="path952-7-5-2" />
    </marker>
    <marker
       style="overflow:visible"
       id="Arrow2Mend-9-6-5"
       refX="0"
       refY="0"
       orient="auto"
       inkscape:stockid="Arrow2Mend"
       inkscape:isstock="true">
      <path
         transform="scale(-0.6)"
         d="M 8.7185878,4.0337352 -2.2072895,0.01601326 8.7185884,-4.0017078 c -1.7454984,2.3720609 -1.7354408,5.6174519 -6e-7,8.035443 z"
         style="fill:context-stroke;fill-rule:evenodd;stroke:context-stroke;stroke-width:0.625;stroke-linejoin:round"
         id="path955-2-9-4" />
    </marker>
    <filter
       inkscape:collect="always"
       style="color-interpolation-filters:sRGB"
       id="filter5325-0-3-7"
       x="-0.020502606"
       y="-0.031228668"
       width="1.0940883"
       height="1.0642572">
      <feGaussianBlur
         inkscape:collect="always"
         stdDeviation="0.044195819"
         id="feGaussianBlur5327-2-7-4" />
    </filter>
    <symbol
       id="ThoughtBalloon">
      <title
         id="title80198">Thought Balloon</title>
      <path
         d="M 44.979167,15.875 C 40.216667,12.170833 31.485417,12.964583 28.575,17.727083 20.108333,12.7 13.49375,27.252083 22.754167,32.54375 c -7.9375,2.645833 -7.9375,13.229167 0.79375,15.08125 -0.529167,7.9375 14.022916,7.672917 15.610416,2.116667 2.645834,6.085416 12.435417,7.672916 15.875,2.38125 3.704167,2.645833 9.525,1.322916 11.377084,-2.38125 2.910416,6.614583 10.847916,5.55625 13.229166,0.264583 C 88.9,51.064583 90.222917,41.804167 87.3125,36.777083 c 6.35,-2.38125 5.820833,-10.31875 0.79375,-12.7 C 92.339583,17.197917 83.608333,8.73125 77.7875,16.404167 74.347917,12.620625 65.352083,12.7 62.970833,16.66875 58.7375,11.641667 48.947917,11.1125 44.979167,15.875 Z"
         style="stroke:none;stroke-width:0.264583"
         id="path80200" />
      <path
         d="m 43.65625,14.552083 c -4.7625,-3.704166 -13.49375,-2.910416 -16.404167,1.852084 -8.466666,-5.027084 -15.08125,9.525 -5.820833,14.816666 -7.9375,2.645834 -7.9375,13.229167 0.79375,15.08125 -0.529167,7.9375 14.022917,7.672917 15.610417,2.116667 2.645833,6.085417 12.435416,7.672917 15.875,2.38125 3.704166,2.645833 9.525,1.322917 11.377083,-2.38125 2.910417,6.614583 10.847917,5.55625 13.229167,0.264583 9.260416,1.058334 10.583333,-8.202083 7.672916,-13.229166 6.35,-2.38125 5.820834,-10.31875 0.79375,-12.7 C 91.016667,15.875 82.285417,7.4083333 76.464583,15.08125 73.025,11.297708 64.029167,11.377083 61.647917,15.345833 57.414583,10.31875 47.625,9.7895833 43.65625,14.552083 Z"
         style="fill:#eeeeee;stroke-width:0.926042"
         id="path80202" />
      <path
         d="m 43.127083,15.345833 c -4.497916,-3.175 -12.7,-2.910416 -15.345833,1.5875 -9.789583,-3.704166 -12.170833,11.1125 -4.497917,14.022917 -8.73125,3.704167 -5.291666,12.7 0.529167,13.229167 -1.322917,7.672916 12.435417,7.672916 14.022917,1.852083 2.645833,6.614583 11.377083,6.35 15.345833,2.116667 3.439583,2.38125 8.995833,1.058333 10.583333,-2.116667 2.645834,5.820833 10.847917,5.027083 12.7,0.264583 8.202084,1.852084 9.789584,-7.408333 7.14375,-11.377083 6.085417,-1.852083 5.55625,-10.054167 0.79375,-12.170833 C 88.10625,15.875 80.433333,8.9958333 76.464583,16.933333 71.4375,12.805833 65.0875,10.847917 60.854167,16.66875 56.885417,11.377083 47.360417,10.583333 43.127083,15.345833 Z"
         style="fill:#ffffff;stroke:none;stroke-width:0.264583"
         id="path80204" />
      <ellipse
         cx="30.956249"
         cy="63.235416"
         rx="7.9375"
         ry="5.5562501"
         style="stroke:none;stroke-width:0.264583"
         id="ellipse80206" />
      <ellipse
         cx="29.897917"
         cy="62.177082"
         rx="7.9375"
         ry="5.5562501"
         style="fill:#eeeeee;stroke-width:0.926042"
         id="ellipse80208" />
      <ellipse
         cx="29.104166"
         cy="61.647915"
         rx="6.0854168"
         ry="4.4979167"
         style="fill:#ffffff;stroke:none;stroke-width:0.264583"
         id="ellipse80210" />
      <ellipse
         cx="19.579166"
         cy="72.760414"
         rx="3.96875"
         ry="2.9104166"
         style="stroke:none;stroke-width:0.264583"
         id="ellipse80212" />
      <ellipse
         cx="18.520834"
         cy="71.70208"
         rx="3.96875"
         ry="2.9104166"
         style="fill:#eeeeee;stroke-width:0.926042"
         id="ellipse80214" />
      <ellipse
         cx="17.727083"
         cy="71.17292"
         rx="2.1166666"
         ry="1.8520833"
         style="fill:#ffffff;stroke:none;stroke-width:0.264583"
         id="ellipse80216" />
    </symbol>
  </defs>
  <g
     inkscape:label="Calque 1"
     inkscape:groupmode="layer"
     id="layer1">
    <path
       style="opacity:1;fill:none;stroke:#0900fb;stroke-width:1.665;stroke-linecap:butt;stroke-linejoin:miter;stroke-miterlimit:4.3;stroke-dasharray:none;stroke-opacity:1;marker-start:url(#Arrow2Mstart);marker-end:url(#Arrow2Mend);filter:url(#filter5325)"
       d="m 48.691468,163.34282 c -0.06071,9.79456 0.644646,24.68546 0.658136,29.27156 0.01596,5.42679 1.075442,20.49219 1.341882,28.18461"
       id="path2329"
       sodipodi:nodetypes="csc" />
    <path
       style="fill:none;stroke:#00b511;stroke-width:1.665;stroke-linecap:butt;stroke-linejoin:miter;stroke-miterlimit:4.3;stroke-dasharray:none;stroke-opacity:1;marker-start:url(#Arrow2Mstart-8);marker-end:url(#Arrow2Mend-9);filter:url(#filter5325-0)"
       d="M 95.248389,132.2143 C 95.044878,119.34548 93.484008,110.67015 71.690886,110.64552 48.959557,110.61982 49.527705,125.6072 49.794145,133.29962"
       id="path2329-3"
       sodipodi:nodetypes="csc" />
    <path
       style="fill:none;stroke:#0900fb;stroke-width:1.665;stroke-linecap:butt;stroke-linejoin:miter;stroke-miterlimit:4.3;stroke-dasharray:none;stroke-opacity:1;marker-start:url(#Arrow2Mstart-75);filter:url(#filter5325-9)"
       d="m 96.297209,163.62485 c -0.0607,9.79456 -0.730075,18.40371 -1.621026,29.05615 -0.816646,9.76402 -4.291598,17.00636 -4.505513,30.07201"
       id="path2329-36"
       sodipodi:nodetypes="csc" />
    <path
       style="fill:none;stroke:#0900fb;stroke-width:1.665;stroke-linecap:butt;stroke-linejoin:miter;stroke-miterlimit:4.3;stroke-dasharray:none;stroke-opacity:1;marker-end:url(#Arrow2Mend-93);filter:url(#filter5325-4)"
       d="m 119.42526,161.85135 c -0.0607,9.79456 -1.14404,22.83837 3.74897,31.81715 6.71881,12.32917 5.60553,19.82256 5.87197,27.51498"
       id="path2329-4"
       sodipodi:nodetypes="csc" />
    <path
       style="fill:none;stroke:#0900fb;stroke-width:1.665;stroke-linecap:butt;stroke-linejoin:miter;stroke-miterlimit:4.3;stroke-dasharray:none;stroke-opacity:1;marker-start:url(#Arrow2Mstart-5);filter:url(#filter5325-06)"
       d="m 157.97266,164.26302 c -0.0607,9.79456 -2.58297,21.32721 -8.80142,30.10093 -7.46514,10.53269 -7.93795,12.09473 -13.85954,29.22954"
       id="path2329-2"
       sodipodi:nodetypes="csc" />
    <path
       style="fill:none;stroke:#0900fb;stroke-width:1.665;stroke-linecap:butt;stroke-linejoin:miter;stroke-miterlimit:4.3;stroke-dasharray:none;stroke-opacity:1;marker-start:url(#Arrow2Mstart-5-0);filter:url(#filter5325-06-5)"
       d="m 174.40455,165.00443 c -0.0607,9.79456 -0.24041,18.42201 -1.49437,27.99039 -1.38312,10.55393 -1.59748,17.08028 -1.78685,29.78325"
       id="path2329-2-7"
       sodipodi:nodetypes="csc" />
    <path
       style="fill:none;stroke:#00b511;stroke-width:1.665;stroke-linecap:butt;stroke-linejoin:miter;stroke-miterlimit:4.3;stroke-dasharray:none;stroke-opacity:1;marker-start:url(#Arrow2Mstart-8-6);marker-end:url(#Arrow2Mend-9-6);filter:url(#filter5325-0-3)"
       d="m 164.36316,131.56042 c -0.20351,-12.86882 -1.76438,-21.54415 -23.5575,-21.56878 -22.73133,-0.0257 -22.16318,14.96168 -21.89674,22.6541"
       id="path2329-3-4"
       sodipodi:nodetypes="csc" />
    <g
       id="g17026">
      <use
         xlink:href="#Process"
         style="fill:#aaccee;stroke:#000000"
         id="use105231-2-6"
         x="0"
         y="0"
         width="100%"
         height="100%"
         transform="matrix(1.3317631,0,0,1.2095576,20.592232,124.49784)" />
      <text
         xml:space="preserve"
         style="font-style:normal;font-variant:normal;font-weight:normal;font-stretch:normal;font-size:7.05556px;line-height:1.25;font-family:sans-serif;-inkscape-font-specification:'sans-serif, Normal';font-variant-ligatures:normal;font-variant-caps:normal;font-variant-numeric:normal;font-variant-east-asian:normal;stroke-width:0.264583"
         x="28.072542"
         y="149.94493"
         id="text9351"><tspan
           sodipodi:role="line"
           id="tspan9349"
           style="font-style:normal;font-variant:normal;font-weight:normal;font-stretch:normal;font-size:7.05556px;font-family:sans-serif;-inkscape-font-specification:'sans-serif, Normal';font-variant-ligatures:normal;font-variant-caps:normal;font-variant-numeric:normal;font-variant-east-asian:normal;stroke-width:0.264583"
           x="28.072542"
           y="149.94493">PostgreSQL</tspan></text>
    </g>
    <g
       id="g32414">
      <use
         xlink:href="#Process"
         style="fill:#aaccee;stroke:#000000"
         id="use105231-2-1"
         x="0"
         y="0"
         width="100%"
         height="100%"
         transform="matrix(1.3317631,0,0,1.2095576,81.873987,124.49784)" />
      <text
         xml:space="preserve"
         style="font-size:7.05556px;line-height:1.25;font-family:sans-serif;-inkscape-font-specification:'sans-serif, Normal';text-align:center;text-anchor:middle;stroke-width:0.264583"
         x="108.87073"
         y="145.54729"
         id="text24960"><tspan
           sodipodi:role="line"
           id="tspan24958"
           style="text-align:center;text-anchor:middle;stroke-width:0.264583"
           x="108.87073"
           y="145.54729">BIOM_AID</tspan><tspan
           sodipodi:role="line"
           style="text-align:center;text-anchor:middle;stroke-width:0.264583"
           x="108.87073"
           y="154.36673"
           id="tspan24962">+ gunicorn</tspan></text>
    </g>
    <g
       id="g38770">
      <use
         xlink:href="#Process"
         style="fill:#aaccee;stroke:#000000"
         id="use105231-2"
         x="0"
         y="0"
         width="100%"
         height="100%"
         transform="matrix(1.3317631,0,0,1.2095576,143.15572,124.49784)" />
      <text
         xml:space="preserve"
         style="font-size:7.05556px;line-height:1.25;font-family:sans-serif;-inkscape-font-specification:'sans-serif, Normal';stroke-width:0.264583"
         x="161.6563"
         y="149.85672"
         id="text36585"><tspan
           sodipodi:role="line"
           id="tspan36583"
           style="stroke-width:0.264583"
           x="161.6563"
           y="149.85672">nginx</tspan></text>
    </g>
    <g
       id="g57490">
      <use
         xlink:href="#MagneticDisk"
         style="fill:#aaccee;stroke:#000000"
         id="use105199"
         x="0"
         y="0"
         width="100%"
         height="100%"
         transform="matrix(1.1640391,0,0,1.1640391,26.702072,220.1247)" />
      <text
         xml:space="preserve"
         style="font-size:7.05556px;line-height:1.25;font-family:sans-serif;-inkscape-font-specification:'sans-serif, Normal';stroke-width:0.264583"
         x="34.956905"
         y="270.45337"
         id="text43086"><tspan
           sodipodi:role="line"
           id="tspan43084"
           style="stroke-width:0.264583"
           x="34.956905"
           y="270.45337">Database</tspan></text>
    </g>
    <g
       id="g57485">
      <use
         xlink:href="#MagneticDisk"
         style="fill:#aaccee;stroke:#000000"
         id="use105199-2"
         x="0"
         y="0"
         width="100%"
         height="100%"
         transform="matrix(1.1640391,0,0,1.1640391,66.927146,220.1247)" />
      <text
         xml:space="preserve"
         style="font-size:7.05556px;line-height:1.25;font-family:sans-serif;-inkscape-font-specification:'sans-serif, Normal';stroke-width:0.264583"
         x="81.84597"
         y="270.45337"
         id="text47680"><tspan
           sodipodi:role="line"
           id="tspan47678"
           style="stroke-width:0.264583"
           x="81.84597"
           y="270.45337">/local</tspan></text>
    </g>
    <g
       id="g57480">
      <use
         xlink:href="#MagneticDisk"
         style="fill:#aaccee;stroke:#000000"
         id="use105197"
         x="0"
         y="0"
         width="100%"
         height="100%"
         transform="matrix(1.1640391,0,0,1.1640391,107.15223,220.1247)" />
      <text
         xml:space="preserve"
         style="font-size:7.05556px;line-height:1.25;font-family:sans-serif;-inkscape-font-specification:'sans-serif, Normal';stroke-width:0.264583"
         x="119.19944"
         y="270.45337"
         id="text50060"><tspan
           sodipodi:role="line"
           id="tspan50058"
           style="stroke-width:0.264583"
           x="119.19944"
           y="270.45337">/media</tspan></text>
    </g>
    <g
       id="g57475">
      <use
         xlink:href="#MagneticDisk"
         style="fill:#aaccee;stroke:#000000"
         id="use104834"
         x="0"
         y="0"
         width="100%"
         height="100%"
         transform="matrix(1.1640391,0,0,1.1640391,147.3773,220.1247)" />
      <text
         xml:space="preserve"
         style="font-size:7.05556px;line-height:1.25;font-family:sans-serif;-inkscape-font-specification:'sans-serif, Normal';stroke-width:0.264583"
         x="160.43346"
         y="270.45337"
         id="text52242"><tspan
           sodipodi:role="line"
           id="tspan52240"
           style="stroke-width:0.264583"
           x="160.43346"
           y="270.45337">/static</tspan></text>
    </g>
    <text
       xml:space="preserve"
       style="font-size:7.05556px;line-height:1.25;font-family:sans-serif;-inkscape-font-specification:'sans-serif, Normal';stroke-width:0.264583"
       x="135.57068"
       y="74.750359"
       id="text61874"><tspan
         sodipodi:role="line"
         id="tspan61872"
         style="stroke-width:0.264583"
         x="135.57068"
         y="74.750359">80/TCP</tspan></text>
    <text
       xml:space="preserve"
       style="font-size:7.05556px;line-height:1.25;font-family:sans-serif;-inkscape-font-specification:'sans-serif, Normal';stroke-width:0.264583"
       x="126.84116"
       y="107.62273"
       id="text66168"><tspan
         sodipodi:role="line"
         id="tspan66166"
         style="stroke-width:0.264583"
         x="126.84116"
         y="107.62273">8000/TCP</tspan></text>
    <text
       xml:space="preserve"
       style="font-size:7.05556px;line-height:1.25;font-family:sans-serif;-inkscape-font-specification:'sans-serif, Normal';stroke-width:0.264583"
       x="58.521271"
       y="107.84408"
       id="text69538"><tspan
         sodipodi:role="line"
         id="tspan69536"
         style="stroke-width:0.264583"
         x="58.521271"
         y="107.84408">5432/TCP</tspan></text>
    <g
       id="g96304"
       transform="translate(31.665082,5.315707)">
      <path
         d="m 53.591692,14.203692 c -4.7625,-3.704167 -13.49375,-2.910417 -16.404167,1.852083 -8.466667,-5.027083 -15.08125,9.525 -5.820833,14.816667 -7.9375,2.645833 -7.9375,13.229167 0.79375,15.08125 -0.529167,7.9375 14.022916,7.672917 15.610416,2.116667 2.645834,6.085416 12.435417,7.672916 15.875,2.38125 3.704167,2.645833 9.525,1.322916 11.377084,-2.38125 2.910416,6.614583 10.847916,5.55625 13.229166,0.264583 9.260417,1.058333 10.583334,-8.202083 7.672917,-13.229167 6.350005,-2.38125 5.820835,-10.31875 0.79375,-12.7 C 100.95211,15.526609 92.220858,7.059942 86.400025,14.732859 82.960442,10.949317 73.964608,11.028692 71.583358,14.997442 67.350025,9.970359 57.560442,9.441192 53.591692,14.203692 Z"
         style="fill:#000000;stroke:none;stroke-width:0.264583"
         id="path95754" />
      <path
         d="m 52.268775,12.880775 c -4.7625,-3.704166 -13.49375,-2.910416 -16.404167,1.852084 -8.466666,-5.027084 -15.08125,9.525 -5.820833,14.816666 -7.9375,2.645834 -7.9375,13.229167 0.79375,15.08125 -0.529167,7.9375 14.022917,7.672917 15.610417,2.116667 2.645833,6.085417 12.435416,7.672917 15.875,2.38125 3.704166,2.645833 9.525,1.322917 11.377083,-2.38125 2.910417,6.614583 10.847917,5.55625 13.229167,0.264583 9.260416,1.058334 10.583333,-8.202083 7.672916,-13.229166 6.350002,-2.38125 5.820832,-10.31875 0.79375,-12.7 C 99.629192,14.203692 90.897942,5.7370253 85.077108,13.409942 81.637525,9.6264 72.641692,9.705775 70.260442,13.674525 66.027108,8.647442 56.237525,8.1182753 52.268775,12.880775 Z"
         style="fill:#eeeeee;stroke:#000000;stroke-width:0.926042"
         id="path95756" />
      <path
         d="m 51.739608,13.674525 c -4.497916,-3.175 -12.7,-2.910416 -15.345833,1.5875 -9.789583,-3.704166 -12.170833,11.1125 -4.497917,14.022917 -8.73125,3.704167 -5.291666,12.7 0.529167,13.229167 -1.322917,7.672916 12.435417,7.672916 14.022917,1.852083 2.645833,6.614583 11.377083,6.35 15.345833,2.116667 3.439583,2.38125 8.995833,1.058333 10.583333,-2.116667 2.645834,5.820833 10.847917,5.027083 12.7,0.264583 8.202084,1.852084 9.789584,-7.408333 7.14375,-11.377083 6.085417,-1.852083 5.55625,-10.054167 0.79375,-12.170833 3.704167,-6.879167 -3.96875,-13.7583337 -7.9375,-5.820834 C 80.050025,11.134525 73.700025,9.176609 69.466692,14.997442 65.497942,9.705775 55.972942,8.912025 51.739608,13.674525 Z"
         style="fill:#ffffff;stroke:none;stroke-width:0.264583"
         id="path95758" />
    </g>
    <path
       style="fill:none;stroke:#00b511;stroke-width:1.665;stroke-linecap:butt;stroke-linejoin:miter;stroke-miterlimit:4.3;stroke-dasharray:none;stroke-opacity:1;marker-start:url(#Arrow2Mstart-8-6-5);marker-end:url(#Arrow2Mend-9-6-5);filter:url(#filter5325-0-3-7)"
       d="m 178.4843,133.05943 c -0.20351,-12.86882 0.0638,-28.22997 -6.48109,-35.944876 -14.70525,-17.33406 -36.53302,-1.574572 -52.08602,-43.463905"
       id="path2329-3-4-4"
       sodipodi:nodetypes="csc" />
    <text
       xml:space="preserve"
       style="font-style:normal;font-variant:normal;font-weight:normal;font-stretch:normal;font-size:9.87778px;line-height:1.25;font-family:sans-serif;-inkscape-font-specification:'sans-serif, Normal';font-variant-ligatures:normal;font-variant-caps:normal;font-variant-numeric:normal;font-variant-east-asian:normal;stroke-width:0.264583"
       x="75.26152"
       y="39.14539"
       id="text99455"><tspan
         sodipodi:role="line"
         id="tspan99453"
         style="font-style:normal;font-variant:normal;font-weight:normal;font-stretch:normal;font-size:9.87778px;font-family:sans-serif;-inkscape-font-specification:'sans-serif, Normal';font-variant-ligatures:normal;font-variant-caps:normal;font-variant-numeric:normal;font-variant-east-asian:normal;stroke-width:0.264583"
         x="75.26152"
         y="39.14539">Intranet</tspan></text>
  </g>
</svg>
